<svg width="34" height="31" viewBox="0 0 34 31" fill="none" xmlns="http://www.w3.org/2000/svg">
<path d="M12.75 12.7754L17.7224 16.1385C18.124 16.4102 18.6627 16.3545 19.0003 16.0065L28.3333 6.3877" stroke="white" stroke-width="2" stroke-linecap="round"/>
<path d="M29.75 15.3307C29.75 17.7331 28.9155 20.0752 27.3638 22.028C25.8121 23.9808 23.621 25.4462 21.0984 26.2184C18.5757 26.9907 15.8482 27.0309 13.2989 26.3335C10.7496 25.6362 8.5065 24.2362 6.88475 22.3302C5.26299 20.4242 4.34399 18.108 4.25683 15.7069C4.16966 13.3058 4.91871 10.9403 6.39876 8.94279C7.87882 6.94525 10.0155 5.41597 12.5088 4.56971C15.0021 3.72346 17.7267 3.60275 20.2999 4.22455" stroke="white" stroke-width="2" stroke-linecap="round"/>
</svg>
