<svg width="34" height="32" viewBox="0 0 34 32" fill="none" xmlns="http://www.w3.org/2000/svg">
<path d="M12.75 13.4449L17.7224 16.8079C18.124 17.0796 18.6627 17.024 19.0003 16.676L28.3333 7.05713" stroke="white" stroke-width="2" stroke-linecap="round"/>
<path d="M29.75 16.0001C29.75 18.4025 28.9155 20.7446 27.3638 22.6974C25.8121 24.6502 23.621 26.1156 21.0984 26.8879C18.5757 27.6601 15.8482 27.7004 13.2989 27.003C10.7496 26.3056 8.5065 24.9056 6.88475 22.9996C5.26299 21.0937 4.34399 18.7775 4.25683 16.3763C4.16966 13.9752 4.91871 11.6098 6.39876 9.61222C7.87882 7.61468 10.0155 6.0854 12.5088 5.23915C15.0021 4.39289 17.7267 4.27219 20.2999 4.89398" stroke="white" stroke-width="2" stroke-linecap="round"/>
</svg>
