<svg width="34" height="31" viewBox="0 0 34 31" fill="none" xmlns="http://www.w3.org/2000/svg">
<path d="M12.75 13.1143L17.7224 16.4774C18.124 16.749 18.6627 16.6934 19.0003 16.3454L28.3333 6.72656" stroke="white" stroke-width="2" stroke-linecap="round"/>
<path d="M29.75 15.6696C29.75 18.072 28.9155 20.4141 27.3638 22.3669C25.8121 24.3197 23.621 25.7851 21.0984 26.5573C18.5757 27.3295 15.8482 27.3698 13.2989 26.6724C10.7496 25.975 8.5065 24.575 6.88475 22.6691C5.26299 20.7631 4.34399 18.4469 4.25683 16.0458C4.16966 13.6446 4.91871 11.2792 6.39876 9.28166C7.87882 7.28412 10.0155 5.75483 12.5088 4.90858C15.0021 4.06233 17.7267 3.94162 20.2999 4.56341" stroke="white" stroke-width="2" stroke-linecap="round"/>
</svg>
