<svg width="42" height="40" viewBox="0 0 42 40" fill="none" xmlns="http://www.w3.org/2000/svg">
<g clip-path="url(#clip0_18_270)">
<rect width="42" height="40" fill="black"/>
<path d="M21 0C9.40212 0 0 8.9544 0 20C0 29.3792 6.78048 37.2496 15.9272 39.4112V26.112H11.597V20H15.9272V17.3664C15.9272 10.5592 19.1621 7.404 26.1794 7.404C27.51 7.404 29.8057 7.6528 30.7448 7.9008V13.4408C30.2492 13.3912 29.3882 13.3664 28.3189 13.3664C24.8758 13.3664 23.5452 14.6088 23.5452 17.8384V20H30.4046L29.2261 26.112H23.5452V39.8536C33.9436 38.6576 42.0008 30.2256 42.0008 20C42 8.9544 32.5979 0 21 0Z" fill="white"/>
</g>
<defs>
<clipPath id="clip0_18_270">
<rect width="42" height="40" fill="white"/>
</clipPath>
</defs>
</svg>
