<svg width="40" height="39" viewBox="0 0 40 39" fill="none" xmlns="http://www.w3.org/2000/svg">
<g clip-path="url(#clip0_18_266)">
<path d="M20 3.49563C25.3438 3.49563 25.9766 3.51838 28.0781 3.60937C30.0313 3.69278 31.0859 4.01126 31.7891 4.27665C32.7188 4.62546 33.3906 5.05009 34.0859 5.72495C34.7891 6.4074 35.2188 7.05193 35.5781 7.95427C35.8516 8.63672 36.1797 9.66797 36.2656 11.5561C36.3594 13.6034 36.3828 14.2176 36.3828 19.3966C36.3828 24.5832 36.3594 25.1974 36.2656 27.2371C36.1797 29.1328 35.8516 30.1565 35.5781 30.8389C35.2188 31.7413 34.7813 32.3934 34.0859 33.0682C33.3828 33.7507 32.7188 34.1677 31.7891 34.5165C31.0859 34.7819 30.0234 35.1004 28.0781 35.1838C25.9688 35.2748 25.3359 35.2976 20 35.2976C14.6563 35.2976 14.0234 35.2748 11.9219 35.1838C9.96875 35.1004 8.91406 34.7819 8.21094 34.5165C7.28125 34.1677 6.60938 33.7431 5.91406 33.0682C5.21094 32.3858 4.78125 31.7413 4.42188 30.8389C4.14844 30.1565 3.82031 29.1252 3.73438 27.2371C3.64063 25.1898 3.61719 24.5756 3.61719 19.3966C3.61719 14.21 3.64063 13.5958 3.73438 11.5561C3.82031 9.66039 4.14844 8.63672 4.42188 7.95427C4.78125 7.05193 5.21875 6.39982 5.91406 5.72495C6.61719 5.04251 7.28125 4.62546 8.21094 4.27665C8.91406 4.01126 9.97656 3.69278 11.9219 3.60937C14.0234 3.51838 14.6563 3.49563 20 3.49563ZM20 0C14.5703 0 13.8906 0.0227482 11.7578 0.113741C9.63281 0.204733 8.17188 0.538373 6.90625 1.01608C5.58594 1.51654 4.46875 2.17624 3.35938 3.26057C2.24219 4.33732 1.5625 5.42165 1.04688 6.69554C0.554688 7.93153 0.210938 9.34191 0.117188 11.4044C0.0234375 13.4821 0 14.1418 0 19.4118C0 24.6818 0.0234375 25.3415 0.117188 27.4115C0.210938 29.474 0.554688 30.892 1.04688 32.1204C1.5625 33.4019 2.24219 34.4862 3.35938 35.563C4.46875 36.6397 5.58594 37.307 6.89844 37.7999C8.17188 38.2776 9.625 38.6112 11.75 38.7022C13.8828 38.7932 14.5625 38.8159 19.9922 38.8159C25.4219 38.8159 26.1016 38.7932 28.2344 38.7022C30.3594 38.6112 31.8203 38.2776 33.0859 37.7999C34.3984 37.307 35.5156 36.6397 36.625 35.563C37.7344 34.4862 38.4219 33.4019 38.9297 32.128C39.4219 30.892 39.7656 29.4816 39.8594 27.4191C39.9531 25.349 39.9766 24.6893 39.9766 19.4193C39.9766 14.1494 39.9531 13.4897 39.8594 11.4196C39.7656 9.35708 39.4219 7.93911 38.9297 6.71071C38.4375 5.42165 37.7578 4.33732 36.6406 3.26057C35.5313 2.18382 34.4141 1.51654 33.1016 1.02367C31.8281 0.545956 30.375 0.212316 28.25 0.121324C26.1094 0.0227482 25.4297 0 20 0Z" fill="#000100"/>
<path d="M20 9.44043C14.3281 9.44043 9.72656 13.9067 9.72656 19.4117C9.72656 24.9168 14.3281 29.383 20 29.383C25.6719 29.383 30.2734 24.9168 30.2734 19.4117C30.2734 13.9067 25.6719 9.44043 20 9.44043ZM20 25.8798C16.3203 25.8798 13.3359 22.9832 13.3359 19.4117C13.3359 15.8402 16.3203 12.9436 20 12.9436C23.6797 12.9436 26.6641 15.8402 26.6641 19.4117C26.6641 22.9832 23.6797 25.8798 20 25.8798Z" fill="#000100"/>
<path d="M33.0781 9.04616C33.0781 10.3352 32 11.3741 30.6797 11.3741C29.3516 11.3741 28.2812 10.3276 28.2812 9.04616C28.2812 7.7571 29.3594 6.71826 30.6797 6.71826C32 6.71826 33.0781 7.76468 33.0781 9.04616Z" fill="#000100"/>
</g>
<defs>
<clipPath id="clip0_18_266">
<rect width="40" height="38.8235" fill="white"/>
</clipPath>
</defs>
</svg>
